HIERARCHY
ROOT Hips
{
	OFFSET 53.219101 -31.114016 95.635391
	CHANNELS 6 Xposition Yposition Zposition Xrotation Yrotation Zrotation
	JOINT spine
	{
		OFFSET 0.000000 -0.458069 7.965683
		CHANNELS 3 Xrotation Yrotation Zrotation
		JOINT spine1
		{
			OFFSET 0.000000 -0.000002 10.243103
			CHANNELS 3 Xrotation Yrotation Zrotation
			JOINT spine2
			{
				OFFSET 0.000000 -0.000002 9.814751
				CHANNELS 3 Xrotation Yrotation Zrotation
				JOINT Neck
				{
					OFFSET 0.000000 -1.201384 25.198616
					CHANNELS 3 Xrotation Yrotation Zrotation
					JOINT Head
					{
						OFFSET 0.000000 -0.000004 7.613144
						CHANNELS 3 Xrotation Yrotation Zrotation
						End Site
						{
							OFFSET 0.000000 6.077328 18.428101
						}
					}
				}
				JOINT RightShoulder
				{
					OFFSET -4.132698 0.575451 10.599205
					CHANNELS 3 Xrotation Yrotation Zrotation
					JOINT RightArm
					{
						OFFSET 0.000000 -0.000004 13.901794
						CHANNELS 3 Xrotation Yrotation Zrotation
						JOINT RightArmRoll
						{
							OFFSET 0.000000 0.000000 7.017883
							CHANNELS 3 Xrotation Yrotation Zrotation
							JOINT RightForeArm
							{
								OFFSET 0.000000 -0.000004 20.440598
								CHANNELS 3 Xrotation Yrotation Zrotation
								JOINT RightForeArmRoll
								{
									OFFSET 0.000000 -0.000002 7.875153
									CHANNELS 3 Xrotation Yrotation Zrotation
									JOINT RightHand
									{
										OFFSET 0.000000 -0.000002 15.803696
										CHANNELS 3 Xrotation Yrotation Zrotation
										End Site
										{
											OFFSET 0.000000 0.000000 0.100006
										}
									}
								}
							}
						}
					}
				}
				JOINT LeftShoulder
				{
					OFFSET 4.132698 0.575451 10.599205
					CHANNELS 3 Xrotation Yrotation Zrotation
					JOINT LeftArm
					{
						OFFSET 0.000000 -0.000004 13.901794
						CHANNELS 3 Xrotation Yrotation Zrotation
						JOINT LeftArmRoll
						{
							OFFSET 0.000000 0.000000 7.017883
							CHANNELS 3 Xrotation Yrotation Zrotation
							JOINT LeftForeArm
							{
								OFFSET 0.000000 -0.000004 20.440598
								CHANNELS 3 Xrotation Yrotation Zrotation
								JOINT LeftForeArmRoll
								{
									OFFSET 0.000000 -0.000002 7.875153
									CHANNELS 3 Xrotation Yrotation Zrotation
									JOINT LeftHand
									{
										OFFSET 0.000000 -0.000002 15.803696
										CHANNELS 3 Xrotation Yrotation Zrotation
										End Site
										{
											OFFSET 0.000000 0.000000 0.100006
										}
									}
								}
							}
						}
					}
				}
			}
		}
	}
	JOINT RightUpLeg
	{
		OFFSET -7.060478 1.086090 -1.294701
		CHANNELS 3 Xrotation Yrotation Zrotation
		JOINT RightUpLegRoll
		{
			OFFSET 0.000000 -0.000004 18.530800
			CHANNELS 3 Xrotation Yrotation Zrotation
			JOINT RightLeg
			{
				OFFSET 0.000000 0.000004 -22.947601
				CHANNELS 3 Xrotation Yrotation Zrotation
				JOINT RightLegRoll
				{
					OFFSET 0.000000 -0.000004 23.022598
					CHANNELS 3 Xrotation Yrotation Zrotation
					JOINT RightFoot
					{
						OFFSET 0.000000 -0.000002 19.162506
						CHANNELS 3 Xrotation Yrotation Zrotation
						JOINT RightToeBase
						{
							OFFSET 0.000000 -0.000004 16.018799
							CHANNELS 3 Xrotation Yrotation Zrotation
							End Site
							{
								OFFSET 0.006790 0.894207 7.757828
							}
						}
					}
				}
			}
		}
	}
	JOINT LeftUpLeg
	{
		OFFSET 7.060478 1.086090 -1.294701
		CHANNELS 3 Xrotation Yrotation Zrotation
		JOINT LeftUpLegRoll
		{
			OFFSET 0.000000 -0.000004 18.530899
			CHANNELS 3 Xrotation Yrotation Zrotation
			JOINT LeftLeg
			{
				OFFSET 0.000000 -0.000004 22.947502
				CHANNELS 3 Xrotation Yrotation Zrotation
				JOINT LeftLegRoll
				{
					OFFSET 0.000000 -0.000004 23.235504
					CHANNELS 3 Xrotation Yrotation Zrotation
					JOINT LeftFoot
					{
						OFFSET 0.000000 -0.000002 18.949600
						CHANNELS 3 Xrotation Yrotation Zrotation
						JOINT LeftToeBase
						{
							OFFSET 0.000000 -0.000004 16.018799
							CHANNELS 3 Xrotation Yrotation Zrotation
							End Site
							{
								OFFSET -0.030430 0.894205 7.757828
							}
						}
					}
				}
			}
		}
	}
}
MOTION
Frames: 8
Frame Time: 0.041667
51.086105 12.813490 56.571602 -2.771298 -2.455828 7.856269 0.596444 0.074609 -0.237272 5.196047 0.144177 -0.473602 6.841099 0.138414 -0.475239 2.313102 3.207002 -2.506062 9.009942 -4.584238 -2.167898 -3.993632 -62.670722 -5.083785 -56.696167 -134.418205 -62.366806 -0.000004 -0.000001 -0.000001 37.475073 -11.956999 2.513471 -0.000006 0.000007 -3.000001 -4.999818 -7.998696 0.000049 -9.448891 68.323578 11.719292 -60.758289 137.323235 67.625341 -0.000001 0.000000 0.000000 32.286694 12.588542 -2.900557 -0.000002 -0.000001 3.006320 -5.000200 7.998703 -0.000191 -84.113356 -168.046286 -2.515852 179.999991 0.000005 -0.947001 97.024613 5.347706 0.467536 -0.000003 0.000000 1.288060 62.070410 4.373572 8.043827 25.458273 -7.355613 0.002068 -83.019747 175.643615 -2.221930 -0.000005 -0.000005 -1.381840 -83.392846 -2.017490 1.150565 -0.000005 0.000006 -1.904990 62.708677 -6.296955 -3.810158 25.457565 7.355622 -0.000999 
51.083500 12.817888 56.572590 -2.746247 -2.453332 7.856144 0.592318 0.075320 -0.237120 5.187796 0.145142 -0.473462 6.832841 0.139386 -0.475117 2.307406 3.216977 -2.510044 9.063623 -4.590383 -2.170362 -3.998433 -62.670401 -5.089293 -56.683962 -134.407714 -62.365078 -0.000002 -0.000001 -0.000002 37.491526 -11.960786 2.516534 -0.000006 0.000009 -3.000001 -4.999821 -7.998700 0.000050 -9.466978 68.324766 11.739653 -60.757647 137.311828 67.640572 -0.000001 -0.000000 0.000000 32.311286 12.597118 -2.904765 0.000001 -0.000000 3.006321 -5.000203 7.998706 -0.000190 -84.139591 -168.048827 -2.513349 179.999991 0.000005 -0.947001 97.029333 5.344142 0.463531 -0.000003 -0.000000 1.289660 62.076208 4.376551 8.037766 25.458270 -7.355615 0.002068 -83.043045 175.646934 -2.217330 -0.000005 -0.000005 -1.381610 -83.385586 -2.018033 1.150226 -0.000005 0.000006 -1.904460 62.700918 -6.294808 -3.816686 25.457561 7.355619 -0.001000 
51.085602 12.847490 56.570393 -2.721930 -2.450765 7.855991 0.588313 0.076031 -0.236956 5.179786 0.146076 -0.473309 6.824831 0.140329 -0.474977 2.301219 3.226283 -2.514009 9.117256 -4.596087 -2.172808 -4.003383 -62.670551 -5.095020 -56.673088 -134.397059 -62.364579 -0.000002 -0.000000 -0.000001 37.507584 -11.964714 2.519616 -0.000007 0.000008 -3.000001 -4.999818 -7.998699 0.000048 -9.484857 68.325067 11.759736 -60.755038 137.302266 67.652867 -0.000002 -0.000000 0.000000 32.334573 12.605348 -2.908836 -0.000001 -0.000001 3.006321 -5.000200 7.998705 -0.000191 -84.165109 -168.051094 -2.510844 179.999991 0.000005 -0.947001 97.034319 5.340393 0.459526 -0.000003 0.000000 1.291330 62.082137 4.379713 8.031321 25.458270 -7.355614 0.002068 -83.065673 175.650240 -2.212567 -0.000005 -0.000003 -1.381410 -83.378141 -2.018644 1.149695 -0.000005 0.000006 -1.903940 62.693166 -6.292656 -3.823215 25.457560 7.355620 -0.000999 
51.084702 12.840990 56.570393 -2.698107 -2.448137 7.855823 0.584403 0.076743 -0.236784 5.171957 0.146990 -0.473143 6.817012 0.141250 -0.474827 2.294679 3.235121 -2.517974 9.170839 -4.601470 -2.175227 -4.008431 -62.671111 -5.100910 -56.662409 -134.386540 -62.364108 -0.000001 0.000000 -0.000002 37.523444 -11.968671 2.522701 -0.000008 0.000007 -3.000002 -4.999821 -7.998702 0.000048 -9.502644 68.324746 11.779679 -60.752490 137.292772 67.665482 -0.000001 -0.000000 0.000000 32.356918 12.613351 -2.912805 0.000000 -0.000001 3.006321 -5.000207 7.998702 -0.000190 -84.190209 -168.053157 -2.508774 179.999991 0.000004 -0.947001 97.039482 5.336394 0.454532 -0.000003 -0.000001 1.293050 62.088086 4.383008 8.024610 25.458270 -7.355613 0.002067 -83.087708 175.653573 -2.208319 -0.000005 -0.000004 -1.381240 -83.370498 -2.019323 1.149168 -0.000005 0.000006 -1.903429 62.685516 -6.290580 -3.829552 25.457563 7.355624 -0.001001 
51.086700 12.821791 56.576580 -2.674579 -2.445487 7.855644 0.580539 0.077456 -0.236610 5.164236 0.147892 -0.472971 6.809282 0.142160 -0.474669 2.287948 3.243679 -2.521925 9.224417 -4.606681 -2.177644 -4.013536 -62.671876 -5.106874 -56.651918 -134.376172 -62.363582 -0.000002 -0.000001 -0.000002 37.539211 -11.972714 2.525840 -0.000006 0.000007 -3.000001 -4.999819 -7.998700 0.000048 -9.520362 68.324131 11.799534 -60.749410 137.284002 67.677100 0.000001 0.000000 0.000000 32.378826 12.621155 -2.916701 -0.000000 -0.000000 3.006321 -5.000203 7.998706 -0.000190 -84.214784 -168.055302 -2.505463 179.999991 0.000005 -0.947001 97.044817 5.332324 0.448536 -0.000003 0.000000 1.294800 62.094144 4.386370 8.017740 25.458268 -7.355615 0.002068 -83.109475 175.656783 -2.203406 -0.000005 -0.000004 -1.381090 -83.362964 -2.019964 1.148638 -0.000006 0.000006 -1.902929 62.677771 -6.288520 -3.835902 25.457563 7.355622 -0.000998 
51.084900 12.828787 56.572098 -2.651121 -2.442826 7.855462 0.576692 0.078168 -0.236433 5.156538 0.148790 -0.472796 6.801591 0.143067 -0.474511 2.281157 3.252178 -2.525868 9.277983 -4.611855 -2.180046 -4.018668 -62.672716 -5.112884 -56.641406 -134.365790 -62.363138 -0.000003 -0.000001 -0.000003 37.554894 -11.976775 2.528970 -0.000007 0.000006 -3.000002 -4.999816 -7.998698 0.000047 -9.538064 68.323420 11.819364 -60.746248 137.275164 67.688657 -0.000000 0.000000 -0.000000 32.400628 12.628963 -2.920620 0.000000 -0.000001 3.006321 -5.000200 7.998706 -0.000190 -84.239291 -168.057378 -2.502239 179.999991 0.000005 -0.947001 97.049980 5.328316 0.444540 -0.000002 -0.000000 1.296550 62.100107 4.389765 8.010741 25.458270 -7.355615 0.002067 -83.131223 175.660048 -2.198480 -0.000005 -0.000005 -1.380940 -83.355321 -2.020636 1.148111 -0.000005 0.000006 -1.902421 62.670032 -6.286454 -3.842249 25.457566 7.355620 -0.001000 
51.085701 12.852583 56.571602 -2.627524 -2.440175 7.855290 0.572814 0.078881 -0.236257 5.148787 0.149696 -0.472626 6.793841 0.143980 -0.474355 2.274464 3.260816 -2.529820 9.331549 -4.617134 -2.182441 -4.023759 -62.673372 -5.118822 -56.630919 -134.355422 -62.362701 -0.000002 -0.000002 -0.000003 37.570664 -11.980818 2.532105 -0.000006 0.000008 -3.000000 -4.999819 -7.998695 0.000048 -9.555817 68.322901 11.839265 -60.743085 137.266312 67.700220 -0.000000 -0.000001 0.000000 32.422628 12.636735 -2.924500 -0.000001 -0.000001 3.006320 -5.000201 7.998708 -0.000190 -84.263982 -168.059427 -2.499235 179.999991 0.000005 -0.947001 97.055137 5.324305 0.440558 -0.000003 0.000001 1.298280 62.106070 4.393113 8.003920 25.458270 -7.355614 0.002067 -83.153038 175.663395 -2.194246 -0.000005 -0.000003 -1.380780 -83.347685 -2.021312 1.147486 -0.000005 0.000006 -1.901921 62.662273 -6.284344 -3.848786 25.457561 7.355620 -0.001000 
51.086399 12.846495 56.577892 -2.603557 -2.437565 7.855122 0.568874 0.079593 -0.236090 5.140917 0.150615 -0.472462 6.785963 0.144908 -0.474207 2.268025 3.269794 -2.533779 9.385157 -4.622640 -2.184841 -4.028774 -62.673829 -5.124658 -56.620120 -134.344835 -62.362154 -0.000001 -0.000001 -0.000001 37.586627 -11.984744 2.535202 -0.000006 0.000008 -3.000001 -4.999819 -7.998700 0.000050 -9.573632 68.322772 11.859256 -60.740558 137.256831 67.712747 0.000000 0.000000 0.000000 32.445301 12.644759 -2.928510 0.000003 -0.000001 3.006321 -5.000201 7.998706 -0.000190 -84.288994 -168.061681 -2.495974 179.999991 0.000005 -0.947001 97.060294 5.320284 0.434555 -0.000003 0.000000 1.299991 62.112012 4.396367 7.997280 25.458272 -7.355615 0.002068 -83.175243 175.666714 -2.189803 -0.000005 -0.000005 -1.380610 -83.340240 -2.021931 1.146953 -0.000005 0.000006 -1.901410 62.654541 -6.282279 -3.855131 25.457561 7.355620 -0.001000 
